<mxfile host="Electron" agent="Mozilla/5.0 (Windows NT 10.0; Win64; x64) AppleWebKit/537.36 (KHTML, like Gecko) draw.io/24.7.8 Chrome/128.0.6613.36 Electron/32.0.1 Safari/537.36" version="24.7.8">
  <diagram id="C5RBs43oDa-KdzZeNtuy" name="Page-1">
    <mxGraphModel dx="1717" dy="1603" grid="1" gridSize="10" guides="1" tooltips="1" connect="1" arrows="1" fold="1" page="1" pageScale="1" pageWidth="827" pageHeight="1169" math="0" shadow="0">
      <root>
        <mxCell id="WIyWlLk6GJQsqaUBKTNV-0" />
        <mxCell id="WIyWlLk6GJQsqaUBKTNV-1" parent="WIyWlLk6GJQsqaUBKTNV-0" />
        <mxCell id="DiTSplvf1MaeGBPLjo4K-0" value="FordFulkerson" style="swimlane;fontStyle=1;align=center;verticalAlign=top;childLayout=stackLayout;horizontal=1;startSize=26;horizontalStack=0;resizeParent=1;resizeParentMax=0;resizeLast=0;collapsible=1;marginBottom=0;whiteSpace=wrap;html=1;" vertex="1" parent="WIyWlLk6GJQsqaUBKTNV-1">
          <mxGeometry x="40" y="-310" width="300" height="120" as="geometry" />
        </mxCell>
        <mxCell id="DiTSplvf1MaeGBPLjo4K-1" value="- Parent: int[]&lt;div&gt;- Visited: int[]&lt;br&gt;&lt;div&gt;&lt;br&gt;&lt;/div&gt;&lt;/div&gt;" style="text;strokeColor=none;fillColor=none;align=right;verticalAlign=top;spacingLeft=4;spacingRight=4;overflow=hidden;rotatable=0;points=[[0,0.5],[1,0.5]];portConstraint=eastwest;whiteSpace=wrap;html=1;" vertex="1" parent="DiTSplvf1MaeGBPLjo4K-0">
          <mxGeometry y="26" width="300" height="44" as="geometry" />
        </mxCell>
        <mxCell id="DiTSplvf1MaeGBPLjo4K-2" value="" style="line;strokeWidth=1;fillColor=none;align=left;verticalAlign=middle;spacingTop=-1;spacingLeft=3;spacingRight=3;rotatable=0;labelPosition=right;points=[];portConstraint=eastwest;strokeColor=inherit;" vertex="1" parent="DiTSplvf1MaeGBPLjo4K-0">
          <mxGeometry y="70" width="300" height="8" as="geometry" />
        </mxCell>
        <mxCell id="DiTSplvf1MaeGBPLjo4K-3" value="+ FindMaxFlow(graph: Graph, source: int, sink: int): int&lt;br&gt;&lt;span style=&quot;background-color: initial;&quot;&gt;- BFS(residualGraph: int [,], source: int, sink: int): bool&lt;/span&gt;" style="text;strokeColor=none;fillColor=none;align=right;verticalAlign=top;spacingLeft=4;spacingRight=4;overflow=hidden;rotatable=0;points=[[0,0.5],[1,0.5]];portConstraint=eastwest;whiteSpace=wrap;html=1;" vertex="1" parent="DiTSplvf1MaeGBPLjo4K-0">
          <mxGeometry y="78" width="300" height="42" as="geometry" />
        </mxCell>
        <mxCell id="DiTSplvf1MaeGBPLjo4K-4" value="Graph" style="swimlane;fontStyle=1;align=center;verticalAlign=top;childLayout=stackLayout;horizontal=1;startSize=26;horizontalStack=0;resizeParent=1;resizeParentMax=0;resizeLast=0;collapsible=1;marginBottom=0;whiteSpace=wrap;html=1;" vertex="1" parent="WIyWlLk6GJQsqaUBKTNV-1">
          <mxGeometry x="440" y="-92" width="215" height="110" as="geometry" />
        </mxCell>
        <mxCell id="DiTSplvf1MaeGBPLjo4K-5" value="+ VerticesCount: int&lt;div&gt;+ Capacity: int[,]&lt;/div&gt;" style="text;strokeColor=none;fillColor=none;align=right;verticalAlign=top;spacingLeft=4;spacingRight=4;overflow=hidden;rotatable=0;points=[[0,0.5],[1,0.5]];portConstraint=eastwest;whiteSpace=wrap;html=1;" vertex="1" parent="DiTSplvf1MaeGBPLjo4K-4">
          <mxGeometry y="26" width="215" height="34" as="geometry" />
        </mxCell>
        <mxCell id="DiTSplvf1MaeGBPLjo4K-6" value="" style="line;strokeWidth=1;fillColor=none;align=left;verticalAlign=middle;spacingTop=-1;spacingLeft=3;spacingRight=3;rotatable=0;labelPosition=right;points=[];portConstraint=eastwest;strokeColor=inherit;" vertex="1" parent="DiTSplvf1MaeGBPLjo4K-4">
          <mxGeometry y="60" width="215" height="8" as="geometry" />
        </mxCell>
        <mxCell id="DiTSplvf1MaeGBPLjo4K-7" value="+ Graph(verticesCount)&lt;div&gt;+ AddEdge(u: int, v: int, capacity: int)&lt;/div&gt;" style="text;strokeColor=none;fillColor=none;align=right;verticalAlign=top;spacingLeft=4;spacingRight=4;overflow=hidden;rotatable=0;points=[[0,0.5],[1,0.5]];portConstraint=eastwest;whiteSpace=wrap;html=1;" vertex="1" parent="DiTSplvf1MaeGBPLjo4K-4">
          <mxGeometry y="68" width="215" height="42" as="geometry" />
        </mxCell>
        <mxCell id="DiTSplvf1MaeGBPLjo4K-12" value="InputHelper" style="swimlane;fontStyle=1;align=center;verticalAlign=top;childLayout=stackLayout;horizontal=1;startSize=26;horizontalStack=0;resizeParent=1;resizeParentMax=0;resizeLast=0;collapsible=1;marginBottom=0;whiteSpace=wrap;html=1;" vertex="1" parent="WIyWlLk6GJQsqaUBKTNV-1">
          <mxGeometry x="-90" y="110" width="560" height="100" as="geometry" />
        </mxCell>
        <mxCell id="DiTSplvf1MaeGBPLjo4K-13" value="-" style="text;strokeColor=none;fillColor=none;align=right;verticalAlign=top;spacingLeft=4;spacingRight=4;overflow=hidden;rotatable=0;points=[[0,0.5],[1,0.5]];portConstraint=eastwest;whiteSpace=wrap;html=1;" vertex="1" parent="DiTSplvf1MaeGBPLjo4K-12">
          <mxGeometry y="26" width="560" height="26" as="geometry" />
        </mxCell>
        <mxCell id="DiTSplvf1MaeGBPLjo4K-14" value="" style="line;strokeWidth=1;fillColor=none;align=left;verticalAlign=middle;spacingTop=-1;spacingLeft=3;spacingRight=3;rotatable=0;labelPosition=right;points=[];portConstraint=eastwest;strokeColor=inherit;" vertex="1" parent="DiTSplvf1MaeGBPLjo4K-12">
          <mxGeometry y="52" width="560" height="8" as="geometry" />
        </mxCell>
        <mxCell id="DiTSplvf1MaeGBPLjo4K-15" value="+ ReadInt(promt: string, validator: Func&amp;lt;int, bool&amp;gt;, errorMessage: string): static int&lt;div&gt;+ ReadEdge(edgeNumber: int, verticesCount: int, existingEdges: HashSet&amp;lt;(int, int)&amp;gt;): static (int, int, int)&lt;br&gt;&lt;div&gt;&lt;br&gt;&lt;/div&gt;&lt;/div&gt;" style="text;strokeColor=none;fillColor=none;align=right;verticalAlign=top;spacingLeft=4;spacingRight=4;overflow=hidden;rotatable=0;points=[[0,0.5],[1,0.5]];portConstraint=eastwest;whiteSpace=wrap;html=1;" vertex="1" parent="DiTSplvf1MaeGBPLjo4K-12">
          <mxGeometry y="60" width="560" height="40" as="geometry" />
        </mxCell>
        <mxCell id="DiTSplvf1MaeGBPLjo4K-16" value="Program" style="swimlane;fontStyle=1;align=center;verticalAlign=top;childLayout=stackLayout;horizontal=1;startSize=26;horizontalStack=0;resizeParent=1;resizeParentMax=0;resizeLast=0;collapsible=1;marginBottom=0;whiteSpace=wrap;html=1;" vertex="1" parent="WIyWlLk6GJQsqaUBKTNV-1">
          <mxGeometry x="90" y="-70" width="190" height="86" as="geometry" />
        </mxCell>
        <mxCell id="DiTSplvf1MaeGBPLjo4K-17" value="-" style="text;strokeColor=none;fillColor=none;align=right;verticalAlign=top;spacingLeft=4;spacingRight=4;overflow=hidden;rotatable=0;points=[[0,0.5],[1,0.5]];portConstraint=eastwest;whiteSpace=wrap;html=1;" vertex="1" parent="DiTSplvf1MaeGBPLjo4K-16">
          <mxGeometry y="26" width="190" height="26" as="geometry" />
        </mxCell>
        <mxCell id="DiTSplvf1MaeGBPLjo4K-18" value="" style="line;strokeWidth=1;fillColor=none;align=left;verticalAlign=middle;spacingTop=-1;spacingLeft=3;spacingRight=3;rotatable=0;labelPosition=right;points=[];portConstraint=eastwest;strokeColor=inherit;" vertex="1" parent="DiTSplvf1MaeGBPLjo4K-16">
          <mxGeometry y="52" width="190" height="8" as="geometry" />
        </mxCell>
        <mxCell id="DiTSplvf1MaeGBPLjo4K-19" value="+ Main(args: string[]): static void" style="text;strokeColor=none;fillColor=none;align=right;verticalAlign=top;spacingLeft=4;spacingRight=4;overflow=hidden;rotatable=0;points=[[0,0.5],[1,0.5]];portConstraint=eastwest;whiteSpace=wrap;html=1;" vertex="1" parent="DiTSplvf1MaeGBPLjo4K-16">
          <mxGeometry y="60" width="190" height="26" as="geometry" />
        </mxCell>
        <mxCell id="DiTSplvf1MaeGBPLjo4K-20" value="" style="endArrow=classic;html=1;rounded=0;exitX=0.527;exitY=0.996;exitDx=0;exitDy=0;exitPerimeter=0;entryX=0.5;entryY=0;entryDx=0;entryDy=0;" edge="1" parent="WIyWlLk6GJQsqaUBKTNV-1" source="DiTSplvf1MaeGBPLjo4K-19" target="DiTSplvf1MaeGBPLjo4K-12">
          <mxGeometry width="50" height="50" relative="1" as="geometry">
            <mxPoint x="20" y="120" as="sourcePoint" />
            <mxPoint x="70" y="70" as="targetPoint" />
          </mxGeometry>
        </mxCell>
        <mxCell id="DiTSplvf1MaeGBPLjo4K-21" value="" style="rhombus;whiteSpace=wrap;html=1;fillColor=#000000;" vertex="1" parent="WIyWlLk6GJQsqaUBKTNV-1">
          <mxGeometry x="420" y="-36" width="20" height="10" as="geometry" />
        </mxCell>
        <mxCell id="DiTSplvf1MaeGBPLjo4K-25" value="" style="endArrow=none;html=1;rounded=0;entryX=0;entryY=0.5;entryDx=0;entryDy=0;exitX=1;exitY=0.5;exitDx=0;exitDy=0;" edge="1" parent="WIyWlLk6GJQsqaUBKTNV-1" target="DiTSplvf1MaeGBPLjo4K-21">
          <mxGeometry width="50" height="50" relative="1" as="geometry">
            <mxPoint x="280.0000000000002" y="-31.34000000000023" as="sourcePoint" />
            <mxPoint x="420" y="-31.340000000000003" as="targetPoint" />
          </mxGeometry>
        </mxCell>
        <mxCell id="DiTSplvf1MaeGBPLjo4K-26" value="" style="rhombus;whiteSpace=wrap;html=1;fillColor=#000000;rotation=-90;" vertex="1" parent="WIyWlLk6GJQsqaUBKTNV-1">
          <mxGeometry x="177.5" y="-190" width="15" height="10" as="geometry" />
        </mxCell>
        <mxCell id="DiTSplvf1MaeGBPLjo4K-27" value="" style="endArrow=none;html=1;rounded=0;exitX=0.5;exitY=0;exitDx=0;exitDy=0;entryX=0;entryY=0.5;entryDx=0;entryDy=0;" edge="1" parent="WIyWlLk6GJQsqaUBKTNV-1" source="DiTSplvf1MaeGBPLjo4K-16" target="DiTSplvf1MaeGBPLjo4K-26">
          <mxGeometry width="50" height="50" relative="1" as="geometry">
            <mxPoint x="170" y="-180" as="sourcePoint" />
            <mxPoint x="185" y="-160" as="targetPoint" />
          </mxGeometry>
        </mxCell>
        <mxCell id="DiTSplvf1MaeGBPLjo4K-29" value="" style="rhombus;whiteSpace=wrap;html=1;fillColor=#FFFFFF;rotation=-134;" vertex="1" parent="WIyWlLk6GJQsqaUBKTNV-1">
          <mxGeometry x="506.48" y="-105.49" width="20" height="12" as="geometry" />
        </mxCell>
        <mxCell id="DiTSplvf1MaeGBPLjo4K-30" value="" style="endArrow=none;html=1;rounded=0;exitX=1;exitY=0.5;exitDx=0;exitDy=0;entryX=1;entryY=0.5;entryDx=0;entryDy=0;" edge="1" parent="WIyWlLk6GJQsqaUBKTNV-1" source="DiTSplvf1MaeGBPLjo4K-0" target="DiTSplvf1MaeGBPLjo4K-29">
          <mxGeometry width="50" height="50" relative="1" as="geometry">
            <mxPoint x="380" y="-220" as="sourcePoint" />
            <mxPoint x="430" y="-270" as="targetPoint" />
          </mxGeometry>
        </mxCell>
        <mxCell id="DiTSplvf1MaeGBPLjo4K-31" value="" style="endArrow=classic;html=1;rounded=0;exitX=0.929;exitY=0;exitDx=0;exitDy=0;exitPerimeter=0;entryX=0.25;entryY=1;entryDx=0;entryDy=0;" edge="1" parent="WIyWlLk6GJQsqaUBKTNV-1" source="DiTSplvf1MaeGBPLjo4K-12" target="DiTSplvf1MaeGBPLjo4K-4">
          <mxGeometry width="50" height="50" relative="1" as="geometry">
            <mxPoint x="440" y="100" as="sourcePoint" />
            <mxPoint x="490" y="50" as="targetPoint" />
          </mxGeometry>
        </mxCell>
      </root>
    </mxGraphModel>
  </diagram>
</mxfile>
